<?xml version="1.0"?>
<svg xmlns="http://www.w3.org/2000/svg" height="512px" viewBox="0 0 58 60" width="512px"><g><g id="Page-1" fill="none" fill-rule="evenodd"><g id="005---Wiping-Surface" fill="rgb(0,0,0)" fill-rule="nonzero" transform="translate(-1)"><path id="Shape" d="m8.959 28.463c-.041.089-.083.173-.124.264-.80727602 1.8121172-2.12851744 3.3475388-3.8 4.416l-2.763 1.757c-.70224875.447933-1.16353168 1.1901109-1.254299 2.0180955-.09076733.8279846.19877096 1.6524709.787299 2.2419045l12.047 12.048c.5145755.5133907 1.2121186.8011857 1.939.8.1030689.0029269.2062207.0002563.309-.008.8289592-.0891517 1.5717869-.552084 2.017-1.257 1.2771631-1.9601357 3.1773052-3.4329748 5.394-4.181.8368284-.297857 1.6380557-.6875707 2.389-1.162l2.437 2.436c1.0430628 1.0472722 2.6957631 1.1727668 3.885.295l11.571 11.576c.3923789.3789722 1.0160848.3735524 1.4018186-.0121814s.3911536-1.0094397.0121814-1.4018186l-11.543-11.543 4.086-4.086 9.293 9.293c.3923789.3789722 1.0160848.3735524 1.4018186-.0121814s.3911536-1.0094397.0121814-1.4018186l-9.293-9.293 3.586-3.586 3.793 3.793c.3923789.3789722 1.0160848.3735524 1.4018186-.0121814s.3911536-1.0094397.0121814-1.4018186l-3.793-3.793 3.586-3.586 7.793 7.793c.3923789.3789722 1.0160848.3735524 1.4018186-.0121814s.3911536-1.0094397.0121814-1.4018186l-7.825-7.825c.8777668-1.1892369.7522722-2.8419372-.295-3.885l-5.918-5.918c.0580607-.2465281.0885809-.4987387.091-.752.0032001-.8960826-.3526269-1.7561177-.988-2.388-.3396056-.3347356-.749542-.5895793-1.2-.746l1.2-1.2c1.3172798-1.3195085 1.3172798-3.4564915 0-4.776-1.3355225-1.2779862-3.4404775-1.2779862-4.776 0l-.627.627c-.3365976-.9049314-1.0481112-1.6200723-1.9513193-1.9612672-.903208-.34119491-1.9098408-.27509907-2.7606807.1812672l-9.515-9.513c-1.185484-1.14360773-3.063516-1.14360773-4.249 0l-16.256 16.251c-.5682783.5608787-.88816316 1.3260483-.88816316 2.1245s.31988486 1.5636213.88816316 2.1245zm38.756.992c.000474.2653977-.1045721.5200985-.292.708l-16.26 16.26c-.3967635.3768905-1.0192365.3768905-1.416 0l-2.211-2.211c.281-.239.457-.408.478-.429l8.4-8.405c.6628758-.663765 1.0199847-1.5732216.9858472-2.5106771-.0341376-.9374556-.4564489-1.8185295-1.1658472-2.4323229-.299465-.2562667-.6435262-.455246-1.015-.587l6.65-6.649 5.549 5.549c.1896746.1863907.2966622.4410718.297.707zm-13.27-17.05c.5354233.5389593.5354233 1.4090407 0 1.948l-7.845 7.847c-.2599566.2510745-.3642126.6228779-.2726972.9725073.0915155.3496295.3645604.6226744.7141899.7141899.3496294.0915154.7214328-.0127406.9725073-.2726972l7.844-7.844 2.8-2.8c.5445601-.5216618 1.4034399-.5216618 1.948 0 .53597.5387338.53597 1.4092662 0 1.948l-10.644 10.641c-.2599566.2510745-.3642126.6228779-.2726972.9725073.0915155.3496295.3645604.6226744.7141899.7141899.3496294.0915154.7214328-.0127406.9725073-.2726972l7.284-7.284c.5443537-.5221755 1.4036463-.5221755 1.948 0 .53597.5387338.53597 1.4092662 0 1.948l-8.4 8.405c-.0672662.0738147-.1229035.1574393-.165.248-.1748112.121221-.3387609.2573997-.49.407l-4.393 4.387c-.3910176.3904653-.3914653 1.0239824-.001 1.415s1.0239824.3914653 1.415.001l4.388-4.388c.5178125-.5490745 1.3659887-.6201868 1.968-.165.2894174.2506126.4618141.6101223.4760328.9927017.0142188.3825794-.1310164.753894-.4010328 1.0252983l-8.4 8.4c-1.0848349 1.0076194-2.3592157 1.7894481-3.749 2.3-2.6440097.896318-4.9086297 2.6578457-6.428 5-.1218989.1910212-.3238203.3164854-.5490739.341168-.2252537.0246827-.4495533-.0540774-.6099261-.214168l-12.05-12.046c-.16047252-.1603845-.23947805-.384935-.21478612-.6104675.02469193-.2255326.15041232-.4276691.34178612-.5495325l2.76-1.756c2.00212937-1.2775812 3.58550174-3.1144183 4.554-5.283.7972387-1.9714089 1.9292352-3.7901816 3.346-5.376l11.112-11.111c.5170469-.5498164 1.3655815-.620995 1.967-.165.2894174.2506126.4618141.6101223.4760328.9927017.0142188.3825794-.1310164.753894-.4010328 1.0252983l-3.922 3.922c-.2599566.2510745-.3642126.6228779-.2726972.9725073.0915155.3496295.3645604.6226744.7141899.7141899.3496294.0915154.7214328-.0127406.9725073-.2726972l3.922-3.922 3.926-3.922c.5441667-.5197487 1.4008333-.5197487 1.945 0zm-31.145 6.152 16.262-16.265c.393073-.38321101 1.0206527-.38098713 1.411.005l9.4 9.4-1.048 1.047c-.1928182-.5248499-.5134958-.9933211-.933-1.363-1.3923039-1.1500334-3.4350011-1.0354855-4.69.263l-11.11 11.113c-1.0725359 1.1392704-1.9788167 2.4242905-2.692 3.817l-6.607-6.6c-.19100414-.1866967-.29809606-.4428944-.29677664-.7099834.00131942-.2670889.1109373-.5222161.30377664-.7070166z" data-original="#000000" class="active-path" data-old_color="#000000" fill="#68E1FC"/><path id="Shape" d="m55.793 50.207 1.5 1.5c.3923789.3789722 1.0160848.3735524 1.4018186-.0121814s.3911536-1.0094397.0121814-1.4018186l-1.5-1.5c-.3923789-.3789722-1.0160848-.3735524-1.4018186.0121814s-.3911536 1.0094397-.0121814 1.4018186z" data-original="#000000" class="active-path" data-old_color="#000000" fill="#68E1FC"/><path id="Shape" d="m52.793 47.207c.3923789.3789722 1.0160848.3735524 1.4018186-.0121814s.3911536-1.0094397.0121814-1.4018186l-1.5-1.5c-.3923789-.3789722-1.0160848-.3735524-1.4018186.0121814s-.3911536 1.0094397-.0121814 1.4018186z" data-original="#000000" class="active-path" data-old_color="#000000" fill="#68E1FC"/><path id="Shape" d="m51.293 51.707c.3904999.3903819 1.0235001.3903819 1.414 0l1.5-1.5c.3789722-.3923789.3735524-1.0160848-.0121814-1.4018186s-1.0094397-.3911536-1.4018186-.0121814l-1.5 1.5c-.3903819.3904999-.3903819 1.0235001 0 1.414z" data-original="#000000" class="active-path" data-old_color="#000000" fill="#68E1FC"/><path id="Shape" d="m55.793 47.207c.3904999.3903819 1.0235001.3903819 1.414 0l1.5-1.5c.3789722-.3923789.3735524-1.0160848-.0121814-1.4018186s-1.0094397-.3911536-1.4018186-.0121814l-1.5 1.5c-.3903819.3904999-.3903819 1.0235001 0 1.414z" data-original="#000000" class="active-path" data-old_color="#000000" fill="#68E1FC"/><path id="Shape" d="m52 17.259c.5522847 0 1-.4477153 1-1v-2c0-.5522847-.4477153-1-1-1s-1 .4477153-1 1v2c0 .5522847.4477153 1 1 1z" data-original="#000000" class="active-path" data-old_color="#000000" fill="#68E1FC"/><path id="Shape" d="m53 22.259v-2c0-.5522847-.4477153-1-1-1s-1 .4477153-1 1v2c0 .5522847.4477153 1 1 1s1-.4477153 1-1z" data-original="#000000" class="active-path" data-old_color="#000000" fill="#68E1FC"/><path id="Shape" d="m54 19.259h2c.5522847 0 1-.4477153 1-1s-.4477153-1-1-1h-2c-.5522847 0-1 .4477153-1 1s.4477153 1 1 1z" data-original="#000000" class="active-path" data-old_color="#000000" fill="#68E1FC"/><path id="Shape" d="m48 19.259h2c.5522847 0 1-.4477153 1-1s-.4477153-1-1-1h-2c-.5522847 0-1 .4477153-1 1s.4477153 1 1 1z" data-original="#000000" class="active-path" data-old_color="#000000" fill="#68E1FC"/></g></g></g> </svg>
