<?xml version="1.0"?>
<svg xmlns="http://www.w3.org/2000/svg" enable-background="new 0 0 48 48" height="512px" viewBox="0 0 48 48" width="512px"><g><g id="Layer_2"><g><path d="m33 11.46v-2.46c0-.55-.45-1-1-1h-2v-2h4c.55 0 1-.45 1-1v-3c0-.55-.45-1-1-1h-10c-.55 0-1 .45-1 1v3c0 .55.45 1 1 1h4v2h-2c-.55 0-1 .45-1 1v2.46c-8 1.83-14 8.99-14 17.54 0 9.92 8.08 18 18 18s18-8.08 18-18c0-8.55-6-15.71-14-17.54zm-8-8.46h8v1h-8zm2 8v-1h4v1zm2 34c-8.82 0-16-7.18-16-16s7.18-16 16-16 16 7.18 16 16-7.18 16-16 16z" data-original="#000000" class="active-path" data-old_color="#000000" fill="#68E1FC"/><path d="m30 24.09v-7.09c0-.55-.45-1-1-1s-1 .45-1 1v7.09c-2.83.48-5 2.94-5 5.91 0 3.31 2.69 6 6 6s6-2.69 6-6c0-2.97-2.17-5.43-5-5.91zm-1 9.91c-2.21 0-4-1.79-4-4s1.79-4 4-4 4 1.79 4 4-1.79 4-4 4z" data-original="#000000" class="active-path" data-old_color="#000000" fill="#68E1FC"/><path d="m11 19c.55 0 1-.45 1-1s-.45-1-1-1h-5c-.55 0-1 .45-1 1s.45 1 1 1z" data-original="#000000" class="active-path" data-old_color="#000000" fill="#68E1FC"/><path d="m1 29c0 .55.45 1 1 1h6c.55 0 1-.45 1-1s-.45-1-1-1h-6c-.55 0-1 .45-1 1z" data-original="#000000" class="active-path" data-old_color="#000000" fill="#68E1FC"/><path d="m5 40c0 .55.45 1 1 1h5c.55 0 1-.45 1-1s-.45-1-1-1h-5c-.55 0-1 .45-1 1z" data-original="#000000" class="active-path" data-old_color="#000000" fill="#68E1FC"/></g></g></g> </svg>
