<?xml version="1.0"?>
<svg xmlns="http://www.w3.org/2000/svg" id="Layer_3" data-name="Layer 3" viewBox="0 0 64 64" width="512px" height="512px"><g><path d="M32,43A18,18,0,1,0,14,25,18.021,18.021,0,0,0,32,43ZM32,9A16,16,0,1,1,16,25,16.019,16.019,0,0,1,32,9Z" data-original="#000000" class="active-path" data-old_color="#000000" fill="#68E1FC"/><path d="M24.03,34.758a1,1,0,0,0,1.551,1.055L32,31.229l6.419,4.584a1,1,0,0,0,1.551-1.055l-1.847-7.392,5.517-4.6A1,1,0,0,0,43,21H35.721l-2.772-8.316a1,1,0,0,0-1.9,0L28.279,21H21a1,1,0,0,0-.64,1.769l5.517,4.6ZM23.762,23H29a1,1,0,0,0,.949-.684L32,16.162l2.051,6.154A1,1,0,0,0,35,23h5.238L36.36,26.231a1,1,0,0,0-.33,1.011l1.341,5.365-4.79-3.42a1,1,0,0,0-1.162,0l-4.79,3.42,1.341-5.365a1,1,0,0,0-.33-1.011Z" data-original="#000000" class="active-path" data-old_color="#000000" fill="#68E1FC"/><path d="M62.707,45.293,53.219,35.8a4.856,4.856,0,0,0,.867-5,2.126,2.126,0,0,1,.481-2.308,4.97,4.97,0,0,0,.159-6.814,1.868,1.868,0,0,1-.363-1.911A4.971,4.971,0,0,0,51.751,13.5a2.2,2.2,0,0,1-1.322-2.018,4.97,4.97,0,0,0-4.706-4.9,1.866,1.866,0,0,1-1.608-1.094A4.97,4.97,0,0,0,37.8,2.913,2.121,2.121,0,0,1,35.5,2.434a4.971,4.971,0,0,0-6.816-.16,1.867,1.867,0,0,1-1.911.363A4.966,4.966,0,0,0,20.5,5.249,2.2,2.2,0,0,1,18.481,6.57a4.97,4.97,0,0,0-4.9,4.707,1.868,1.868,0,0,1-1.1,1.608A4.969,4.969,0,0,0,9.914,19.2,2.126,2.126,0,0,1,9.433,21.5a4.97,4.97,0,0,0-.159,6.814,1.87,1.87,0,0,1,.363,1.911,4.9,4.9,0,0,0,1.321,5.4L1.293,45.293a1,1,0,0,0,.482,1.682l12.391,2.859,2.859,12.391a1,1,0,0,0,1.682.482L32,49.414,45.293,62.707a1,1,0,0,0,1.682-.482l2.859-12.391,12.391-2.859a1,1,0,0,0,.482-1.682ZM13.571,38.518a4.97,4.97,0,0,0,4.706,4.9,1.866,1.866,0,0,1,1.608,1.094A4.97,4.97,0,0,0,26.2,47.087a2.121,2.121,0,0,1,2.307.479,4.943,4.943,0,0,0,1.506,1.011l-8.44,8.44L18.975,45.775a1,1,0,0,0-.75-.75L6.983,42.431l5.674-5.674A2.182,2.182,0,0,1,13.571,38.518Zm37.941-1.4c.042-.019.079-.048.121-.069l5.384,5.385L45.775,45.025a1,1,0,0,0-.75.75L42.431,57.017l-8.448-8.448a4.965,4.965,0,0,0,1.336-.843,1.875,1.875,0,0,1,1.911-.363,4.97,4.97,0,0,0,6.27-2.612,2.2,2.2,0,0,1,2.019-1.321,4.97,4.97,0,0,0,4.9-4.707A1.868,1.868,0,0,1,51.512,37.115ZM10,25a2.966,2.966,0,0,1,.857-2.092,4.13,4.13,0,0,0,.923-4.43,2.971,2.971,0,0,1,1.537-3.773,3.86,3.86,0,0,0,2.264-3.323A2.971,2.971,0,0,1,18.509,8.57a4.208,4.208,0,0,0,3.813-2.5A2.967,2.967,0,0,1,26.069,4.51a3.863,3.863,0,0,0,3.95-.749,3.046,3.046,0,0,1,4.074.1,4.128,4.128,0,0,0,4.428.923A2.972,2.972,0,0,1,42.3,6.317a3.861,3.861,0,0,0,3.323,2.264,2.969,2.969,0,0,1,2.811,2.929,4.211,4.211,0,0,0,2.5,3.812,2.971,2.971,0,0,1,1.562,3.747,3.864,3.864,0,0,0,.75,3.952,2.97,2.97,0,0,1-.1,4.071,4.13,4.13,0,0,0-.923,4.43A2.971,2.971,0,0,1,50.683,35.3a3.86,3.86,0,0,0-2.264,3.323,2.971,2.971,0,0,1-2.928,2.812,4.207,4.207,0,0,0-3.813,2.5,2.97,2.97,0,0,1-3.747,1.563,3.865,3.865,0,0,0-3.95.749,3.045,3.045,0,0,1-4.074-.1A4.128,4.128,0,0,0,27,44.935a4.212,4.212,0,0,0-1.518.285,2.972,2.972,0,0,1-3.774-1.537,3.861,3.861,0,0,0-3.323-2.264,2.969,2.969,0,0,1-2.811-2.929,4.211,4.211,0,0,0-2.5-3.812,2.971,2.971,0,0,1-1.562-3.747,3.866,3.866,0,0,0-.75-3.952A2.947,2.947,0,0,1,10,25Zm8.569,35.018L15.975,48.775a1,1,0,0,0-.75-.75L3.983,45.432,5.315,44.1l11.851,2.735L19.9,58.685ZM48.775,48.025a1,1,0,0,0-.75.75L45.431,60.018,44.1,58.685l2.735-11.851L58.685,44.1l1.332,1.333Z" data-original="#000000" class="active-path" data-old_color="#000000" fill="#68E1FC"/></g> </svg>
