<svg xmlns="http://www.w3.org/2000/svg" width="39" height="38" viewBox="0 0 39 38" fill="none">
  <path d="M19.5 37C29.4411 37 37.5 28.9411 37.5 19C37.5 9.05887 29.4411 1 19.5 1C9.55887 1 1.5 9.05887 1.5 19C1.5 28.9411 9.55887 37 19.5 37Z" stroke="#FED201" stroke-width="2" stroke-linecap="round" stroke-linejoin="round"/>
  <path d="M20.75 28.75C20.75 29.4404 20.1904 30 19.5 30C18.8096 30 18.25 29.4404 18.25 28.75C18.25 28.0596 18.8096 27.5 19.5 27.5C20.1904 27.5 20.75 28.0596 20.75 28.75Z" fill="#FED201" stroke="#FED201" stroke-width="2"/>
  <path d="M19.5 22V20.5C20.5384 20.5 21.5534 20.1921 22.4167 19.6152C23.2801 19.0383 23.953 18.2184 24.3504 17.2591C24.7477 16.2998 24.8517 15.2442 24.6491 14.2258C24.4466 13.2074 23.9465 12.2719 23.2123 11.5377C22.4781 10.8035 21.5426 10.3035 20.5242 10.1009C19.5058 9.89831 18.4502 10.0023 17.4909 10.3996C16.5316 10.797 15.7117 11.4699 15.1348 12.3333C14.5579 13.1966 14.25 14.2117 14.25 15.25" stroke="#FED201" stroke-width="2" stroke-linecap="round" stroke-linejoin="round"/>
</svg>