<?xml version="1.0"?>
<svg xmlns="http://www.w3.org/2000/svg" id="Capa_1" enable-background="new 0 0 512 512" height="512px" viewBox="0 0 512 512" width="512px"><g><g><path d="m206.607 254.394c-5.857-5.857-15.355-5.857-21.213 0s-5.858 15.355 0 21.213l40 40c2.928 2.928 6.767 4.393 10.606 4.393s7.678-1.465 10.606-4.394l80-80c5.858-5.857 5.858-15.355 0-21.213-5.857-5.857-15.355-5.857-21.213 0l-69.393 69.394z" data-original="#000000" class="active-path" data-old_color="#000000" fill="#68E1FC"/><path d="m436 80c-60.479 0-117.339-23.552-160.104-66.317l-9.289-9.289c-5.856-5.859-15.355-5.857-21.213 0l-9.29 9.289c-42.765 42.765-99.624 66.317-160.104 66.317-8.284 0-15 6.716-15 15v149.622c0 120.271 76.401 227.393 190.115 266.561 1.583.545 3.233.817 4.885.817s3.303-.272 4.885-.817c113.714-39.168 190.115-146.291 190.115-266.561v-149.622c0-8.284-6.716-15-15-15zm-15 164.622c0 105.74-66.09 200.108-165 236.457-98.91-36.348-165-130.716-165-236.457v-135.054c28.598-1.655 56.498-8.056 83.128-19.086 30.696-12.715 58.233-30.973 81.872-54.278 23.639 23.305 51.176 41.562 81.871 54.277 26.631 11.03 54.53 17.431 83.129 19.086z" data-original="#000000" class="active-path" data-old_color="#000000" fill="#68E1FC"/><path d="m121 255c0 74.439 60.561 135 135 135s135-60.561 135-135-60.56-135-135-135-135 60.561-135 135zm240 0c0 57.897-47.103 105-105 105s-105-47.103-105-105 47.103-105 105-105c57.898 0 105 47.103 105 105z" data-original="#000000" class="active-path" data-old_color="#000000" fill="#68E1FC"/></g></g> </svg>
