<?xml version="1.0"?>
<svg xmlns="http://www.w3.org/2000/svg" height="512px" viewBox="0 0 60 60" width="512px"><g><g id="Page-1" fill="none" fill-rule="evenodd"><g id="019---No-Duplications" fill="rgb(0,0,0)" fill-rule="nonzero"><path id="Shape" d="m8.787 8.787c-10.12018494 10.1203791-11.68208559 25.9802624-3.7305051 37.880371 7.9515805 11.9001085 23.2020135 16.5260923 36.4247358 11.0488821 13.2227222-5.4772102 20.735017-19.5321333 17.942661-33.5693326-2.7923559-14.0371993-15.1116516-24.14711461-29.4238917-24.1469205-7.9557328.00372846-15.5849412 3.16395354-21.213 8.787zm41.013 41.013c-10.935238 10.935238-28.664762 10.935238-39.6 0-10.93523805-10.935238-10.93523805-28.664762 0-39.6 10.935238-10.93523805 28.664762-10.93523805 39.6 0 10.935238 10.935238 10.935238 28.664762 0 39.6z" data-original="#000000" class="active-path" data-old_color="#000000" fill="#68E1FC"/><path id="Shape" d="m10.573 45.74c.1786431.2198079.442122.3535462.725.368h.052c.2651948-.0000566.5195073-.1054506.707-.293l4.817-4.815h2.126v2.126l-4.817 4.817c-.2001839.2001223-.3061785.4757076-.2916914.7583959.014487.2826882.1480985.5459943.3676914.7246041 9.9427896 8.0759688 24.3811268 7.3302342 33.4389872-1.7271111 9.0578604-9.0573452 9.8044162-23.49564 1.7290128-33.4388889-.1786431-.2198079-.442122-.3535462-.725-.368-.2824117-.0124786-.5573164.0929196-.759.291l-4.153 4.153c-.3678419-.8117551-1.175793-1.3339722-2.067-1.336h-.849l4.943-4.943c.2001839-.2001223.3061785-.4757076.2916914-.7583959-.014487-.2826882-.1480985-.5459943-.3676914-.7246041-9.9427896-8.07596885-24.3811268-7.33023417-33.4389872 1.7271111-9.05786037 9.0573452-9.80441617 23.49564-1.7290128 33.4388889zm3.707-6.74c-.0745064.0008114-.1461979-.0284279-.198885-.081115s-.0819264-.1243786-.081115-.198885v-17.72h6.714c1.2620659-.0011027 2.2848973-1.0239341 2.286-2.286v-6.714h11.72c.1522364.0056537.2743463.1277636.28.28v4.72h-5.522c-.6071947-.0018465-1.1898644.2394321-1.618.67l-8.19 8.19c-.4272246.4291443-.6679738 1.0094576-.67 1.615v11.525zm1.084-20 5.636-5.635v5.349c0 .1579534-.1280466.286-.286.286zm12.636 1.358v5.356c0 .1579534-.1280466.286-.286.286h-5.356zm20.555-3.958c6.7074393 9.1567444 5.7342376 21.8370195-2.2919606 29.8629681-8.0261983 8.0259486-20.7065036 8.998756-29.8630394 2.2910319l2.622-2.621c.1062281 1.1673893 1.0827959 2.0625404 2.255 2.067h20.446c1.2572571-.0016538 2.2758982-1.0207423 2.277-2.278v-24.768zm-6.555 2.878v26.444c-.0016126.1524738-.124533.275838-.277.278h-20.446c-.1531445-.0005509-.277001-.1248545-.277-.278v-17.722h6.714c1.2620659-.0011027 2.2848973-1.0239341 2.286-2.286v-6.714h11.723c.152467.002162.2753874.1255262.277.278zm1.6-7.832-5.554 5.554h-1.046v-4.72c-.0011027-1.2587522-1.0212478-2.2788973-2.28-2.28h-12.24c-.6066643.0022967-1.1878522.2441888-1.617.673l-8.129 8.133c-.4694836.4255416-.736274 1.0303634-.734 1.664v18.25c.0038529 1.1729893.8989167 2.150761 2.067 2.258l-2.622 2.622c-6.70743931-9.1567444-5.73423761-21.8370195 2.2919606-29.8629681 8.0261983-8.02594864 20.7065036-8.99875598 29.8630394-2.2910319z" data-original="#000000" class="active-path" data-old_color="#000000" fill="#68E1FC"/><path id="Shape" d="m25 31c-.5522847 0-1 .4477153-1 1s.4477153 1 1 1h13c.5522847 0 1-.4477153 1-1s-.4477153-1-1-1z" data-original="#000000" class="active-path" data-old_color="#000000" fill="#68E1FC"/><path id="Shape" d="m38 36h-13c-.5522847 0-1 .4477153-1 1s.4477153 1 1 1h13c.5522847 0 1-.4477153 1-1s-.4477153-1-1-1z" data-original="#000000" class="active-path" data-old_color="#000000" fill="#68E1FC"/><path id="Shape" d="m38 41h-13c-.5522847 0-1 .4477153-1 1s.4477153 1 1 1h13c.5522847 0 1-.4477153 1-1s-.4477153-1-1-1z" data-original="#000000" class="active-path" data-old_color="#000000" fill="#68E1FC"/></g></g></g> </svg>
