<svg width="17" height="18" viewBox="0 0 17 18" fill="none" xmlns="http://www.w3.org/2000/svg">
<path d="M1.5 4.5H3.05556H15.5" stroke="#0072B8" stroke-width="1.5" stroke-linecap="round" stroke-linejoin="round"/>
<path d="M13.9436 4.5V15C13.9436 15.3978 13.7797 15.7794 13.488 16.0607C13.1962 16.342 12.8006 16.5 12.388 16.5H4.61024C4.19768 16.5 3.80202 16.342 3.5103 16.0607C3.21858 15.7794 3.05469 15.3978 3.05469 15V4.5M5.38802 4.5V3C5.38802 2.60218 5.55191 2.22064 5.84363 1.93934C6.13536 1.65804 6.53102 1.5 6.94358 1.5H10.0547C10.4672 1.5 10.8629 1.65804 11.1546 1.93934C11.4464 2.22064 11.6102 2.60218 11.6102 3V4.5" stroke="#0072B8" stroke-width="1.5" stroke-linecap="round" stroke-linejoin="round"/>
<path d="M6.94531 8.25V12.75" stroke="#0072B8" stroke-width="1.5" stroke-linecap="round" stroke-linejoin="round"/>
<path d="M10.0547 8.25V12.75" stroke="#0072B8" stroke-width="1.5" stroke-linecap="round" stroke-linejoin="round"/>
</svg>
