<svg width="21" height="14" viewBox="0 0 21 14" fill="none" xmlns="http://www.w3.org/2000/svg">
<path d="M20.8731 6.46772C18.896 2.61006 14.9818 0 10.5 0C6.01817 0 2.1029 2.61188 0.126855 6.46809C0.0434538 6.63306 0 6.81534 0 7.0002C0 7.18506 0.0434538 7.36733 0.126855 7.53231C2.10399 11.39 6.01817 14 10.5 14C14.9818 14 18.8971 11.3881 20.8731 7.53194C20.9565 7.36696 21 7.18469 21 6.99983C21 6.81497 20.9565 6.6327 20.8731 6.46772ZM10.5 12.25C9.46165 12.25 8.44661 11.9421 7.58325 11.3652C6.71989 10.7884 6.04698 9.96842 5.64962 9.00911C5.25226 8.04979 5.14829 6.99419 5.35087 5.97579C5.55344 4.95739 6.05345 4.02192 6.78768 3.2877C7.52191 2.55347 8.45737 2.05345 9.47577 1.85088C10.4942 1.64831 11.5498 1.75228 12.5091 2.14964C13.4684 2.547 14.2883 3.2199 14.8652 4.08326C15.4421 4.94662 15.75 5.96166 15.75 7.00001C15.7503 7.68955 15.6148 8.37239 15.3511 9.0095C15.0873 9.64661 14.7006 10.2255 14.2131 10.7131C13.7255 11.2007 13.1466 11.5874 12.5095 11.8511C11.8724 12.1148 11.1895 12.2504 10.5 12.25ZM10.5 3.50001C10.1876 3.50437 9.87721 3.55085 9.57724 3.63818C9.82451 3.97421 9.94316 4.38773 9.91169 4.80374C9.88022 5.21975 9.70071 5.61071 9.4057 5.90571C9.1107 6.20072 8.71974 6.38024 8.30373 6.41171C7.88771 6.44318 7.4742 6.32452 7.13817 6.07725C6.94682 6.78221 6.98137 7.52942 7.23693 8.21371C7.49249 8.89801 7.95622 9.48494 8.56282 9.89188C9.16943 10.2988 9.88838 10.5053 10.6185 10.4822C11.3486 10.4592 12.0531 10.2077 12.6328 9.76331C13.2125 9.31889 13.6382 8.70387 13.8501 8.0048C14.062 7.30574 14.0493 6.55784 13.8138 5.86637C13.5784 5.17489 13.132 4.57467 12.5375 4.15017C11.9431 3.72568 11.2305 3.49829 10.5 3.50001Z" fill="#0072B8"/>
</svg>
